# xmcd
#
# Track frame offsets: 
#        150
#        21639
#        39184
#        56151
#        73513
#        92830
#        112034
#        131764
#        147215
#        164198
#        181866
#        203164
#
# Disc length: 3039 seconds
#
# Revision: 0
# Processed by: cddbd v1.5.2PL0 Copyright (c) Steve Scherf et al.
# Submitted via: ExactAudioCopy v1.0b3
#
DISCID=b50bdd0c
DTITLE=Lilly Martin - Right Now
DYEAR=2015
DGENRE=Blues
TTITLE0=Jealous Kind
TTITLE1=Lonely Avenue
TTITLE2=New York City
TTITLE3=Next To Me
TTITLE4=Right Here, Right Now
TTITLE5=Runaway Train
TTITLE6=Time Will Tell
TTITLE7=Black Rat
TTITLE8=Tubling Walls
TTITLE9=Move On
TTITLE10=Makes Me Wanna Cry
TTITLE11=Ask Me 'Bout Nothing
EXTD=
EXTT0=
EXTT1=
EXTT2=
EXTT3=
EXTT4=
EXTT5=
EXTT6=
EXTT7=
EXTT8=
EXTT9=
EXTT10=
EXTT11=
PLAYORDER=
